<?xml version="1.0" encoding="utf-8"?>
<!-- Generator: Adobe Illustrator 25.2.3, SVG Export Plug-In . SVG Version: 6.00 Build 0)  -->
<svg version="1.1" id="Layer_1" xmlns="http://www.w3.org/2000/svg" xmlns:xlink="http://www.w3.org/1999/xlink" x="0px" y="0px"
	 viewBox="0 0 24 24" style="enable-background:new 0 0 24 24;" xml:space="preserve">
<style type="text/css">
	.st0{fill-rule:evenodd;clip-rule:evenodd;fill:#878A99;}
	.st1{fill:#878A99;}
</style>
<path class="st0" d="M6.6,3.8H5.2c-0.7,0-1.4,0.3-1.9,0.8C2.7,5.2,2.4,5.9,2.4,6.6v12c0,0.7,0.3,1.4,0.8,1.9
	c0.5,0.5,1.2,0.8,1.9,0.8h5.7c0.4,0,0.8-0.3,0.8-0.8s-0.3-0.8-0.8-0.8H5.2c-0.3,0-0.6-0.1-0.9-0.4c-0.2-0.2-0.4-0.6-0.4-0.9v-12
	c0-0.3,0.1-0.6,0.4-0.9c0.2-0.2,0.6-0.4,0.9-0.4h1.4c0.1,0.4,0.4,0.9,0.7,1.2C7.8,7,8.5,7.3,9.2,7.3h2c0.7,0,1.4-0.3,1.9-0.8
	c0.3-0.3,0.6-0.7,0.7-1.2h1.4c0.3,0,0.6,0.1,0.9,0.4c0.2,0.2,0.4,0.6,0.4,0.9v4c0,0.4,0.3,0.8,0.8,0.8s0.8-0.3,0.8-0.8v-4
	c0-0.7-0.3-1.4-0.8-1.9c-0.5-0.5-1.2-0.8-1.9-0.8h-1.4c-0.1-0.4-0.4-0.9-0.7-1.2c-0.5-0.5-1.2-0.8-1.9-0.8h-2
	c-0.7,0-1.4,0.3-1.9,0.8C6.9,3,6.7,3.4,6.6,3.8z M8.3,3.7c0.2-0.2,0.6-0.4,0.9-0.4h2c0.3,0,0.6,0.1,0.9,0.4c0.2,0.2,0.4,0.6,0.4,0.9
	s-0.1,0.6-0.4,0.9c-0.2,0.2-0.6,0.4-0.9,0.4h-2c-0.3,0-0.6-0.1-0.9-0.4C8.1,5.2,7.9,4.9,7.9,4.6S8.1,3.9,8.3,3.7z"/>
<path class="st1" d="M7.2,9.8c-0.4,0-0.8,0.3-0.8,0.8s0.3,0.8,0.8,0.8h4c0.4,0,0.8-0.3,0.8-0.8s-0.3-0.8-0.8-0.8H7.2z"/>
<path class="st0" d="M17.2,12.8c-1.3,0-2.5,0.5-3.4,1.4c-0.9,0.9-1.4,2.1-1.4,3.4s0.5,2.5,1.4,3.4c0.9,0.9,2.1,1.4,3.4,1.4
	s2.5-0.5,3.4-1.4c0.9-0.9,1.4-2.1,1.4-3.4s-0.5-2.5-1.4-3.4C19.7,13.3,18.5,12.8,17.2,12.8z M16.4,14.4c-0.6,0.1-1.1,0.4-1.5,0.9
	c-0.6,0.6-1,1.4-1,2.3s0.3,1.7,1,2.3c0.6,0.6,1.4,1,2.3,1s1.7-0.3,2.3-1c0.4-0.4,0.7-1,0.9-1.5h-3.2c-0.4,0-0.8-0.3-0.8-0.8V14.4z
	 M20.4,16.8h-2.4v-2.4c0.6,0.1,1.1,0.4,1.5,0.9C19.9,15.7,20.2,16.3,20.4,16.8z"/>
<path class="st1" d="M7.2,13.8c-0.4,0-0.8,0.3-0.8,0.8s0.3,0.8,0.8,0.8h3c0.4,0,0.8-0.3,0.8-0.8s-0.3-0.8-0.8-0.8H7.2z"/>
</svg>
