<?xml version="1.0" encoding="utf-8"?>
<!-- Generator: Adobe Illustrator 25.2.3, SVG Export Plug-In . SVG Version: 6.00 Build 0)  -->
<svg version="1.1" id="Layer_1" xmlns="http://www.w3.org/2000/svg" xmlns:xlink="http://www.w3.org/1999/xlink" x="0px" y="0px"
	 viewBox="0 0 24 24" style="enable-background:new 0 0 24 24;" xml:space="preserve">
<style type="text/css">
	.st0{fill-rule:evenodd;clip-rule:evenodd;}
</style>
<g>
	<path class="st0" d="M5,16c0.4,0,0.8,0.3,0.8,0.8v2C5.8,18.9,5.9,19,6,19h12c0.1,0,0.2-0.1,0.2-0.2v-2c0-0.4,0.3-0.8,0.8-0.8
		s0.8,0.3,0.8,0.8v2c0,1-0.8,1.8-1.8,1.8H6c-1,0-1.8-0.8-1.8-1.8v-2C4.2,16.3,4.6,16,5,16z"/>
	<path class="st0" d="M10.7,15.9c-0.5,0-0.9-0.4-1-0.9c-0.2-1.8-0.2-3.5-0.1-5.3c-0.2,0-0.5,0-0.7,0L7.4,9.5c-0.6,0-0.9-0.7-0.6-1.2
		c1.1-1.7,2.4-3.1,4-4.3l0.6-0.4c0.3-0.2,0.7-0.2,1,0l0.6,0.4c1.6,1.2,3,2.6,4,4.3c0.3,0.5,0,1.1-0.6,1.2l-1.5,0.1
		c-0.2,0-0.5,0-0.7,0c0.1,1.8,0.1,3.5-0.1,5.3c0,0.5-0.5,0.9-1,0.9H10.7z"/>
</g>
</svg>
