<?xml version="1.0" encoding="utf-8"?>
<!-- Generator: Adobe Illustrator 25.2.3, SVG Export Plug-In . SVG Version: 6.00 Build 0)  -->
<svg version="1.1" id="Layer_1" xmlns="http://www.w3.org/2000/svg" xmlns:xlink="http://www.w3.org/1999/xlink" x="0px" y="0px"
	 viewBox="0 0 24 24" style="enable-background:new 0 0 24 24;" xml:space="preserve">
<style type="text/css">
	.st0{fill-rule:evenodd;clip-rule:evenodd;}
</style>
<path class="st0" d="M7.2,3.4c0.4,0,0.8,0.3,0.8,0.8v1.7c2.8-0.3,5.7-0.3,8.5,0V4.2c0-0.4,0.3-0.8,0.8-0.8c0.4,0,0.8,0.3,0.8,0.8V6
	c1.5,0.2,2.7,1.4,2.9,2.9l0.1,0.7c0.4,2.7,0.3,5.5-0.1,8.3c-0.2,1.4-1.3,2.4-2.7,2.5l-1.2,0.1c-3.2,0.3-6.3,0.3-9.5,0l-1.2-0.1
	c-1.4-0.1-2.5-1.2-2.7-2.5c-0.4-2.7-0.5-5.5-0.1-8.3l0.1-0.7C3.8,7.4,5,6.2,6.4,6V4.2C6.4,3.7,6.8,3.4,7.2,3.4z M7.6,7.4
	c3-0.3,6.1-0.3,9.1,0l0.9,0.1c0.9,0.1,1.6,0.8,1.7,1.6l0.1,0.7c0,0.2,0.1,0.5,0.1,0.7H4.9c0-0.2,0.1-0.5,0.1-0.7l0.1-0.7
	c0.1-0.9,0.8-1.5,1.7-1.6L7.6,7.4z M4.8,11.9c-0.1,1.9,0,3.8,0.3,5.7c0.1,0.7,0.7,1.2,1.3,1.3L7.6,19c3.1,0.3,6.1,0.3,9.2,0l1.2-0.1
	c0.7-0.1,1.2-0.6,1.3-1.3c0.3-1.9,0.4-3.8,0.3-5.7H4.8z"/>
</svg>
