<?xml version="1.0" encoding="utf-8"?>
<!-- Generator: Adobe Illustrator 25.2.3, SVG Export Plug-In . SVG Version: 6.00 Build 0)  -->
<svg version="1.1" id="Layer_1" xmlns="http://www.w3.org/2000/svg" xmlns:xlink="http://www.w3.org/1999/xlink" x="0px" y="0px"
	 viewBox="0 0 24 24" style="enable-background:new 0 0 24 24;" xml:space="preserve">
<style type="text/css">
	.st0{fill-rule:evenodd;clip-rule:evenodd;}
</style>
<g>
	<path class="st0" d="M14.3,15.3c-2.7,2.1-6.5,2-9-0.5c-2.6-2.6-2.6-6.9,0-9.5s6.9-2.6,9.5,0c2.5,2.5,2.6,6.3,0.5,9l5.2,5.2
		c0.3,0.3,0.3,0.8,0,1.1s-0.8,0.3-1.1,0L14.3,15.3z M6.3,13.8c-2.1-2.1-2.1-5.4,0-7.4s5.4-2.1,7.4,0c2,2,2.1,5.4,0,7.4c0,0,0,0,0,0
		c0,0,0,0,0,0C11.7,15.8,8.4,15.8,6.3,13.8z"/>
</g>
</svg>
