<?xml version="1.0" encoding="utf-8"?>
<!-- Generator: Adobe Illustrator 25.2.3, SVG Export Plug-In . SVG Version: 6.00 Build 0)  -->
<svg version="1.1" id="Layer_1" xmlns="http://www.w3.org/2000/svg" xmlns:xlink="http://www.w3.org/1999/xlink" x="0px" y="0px"
	 viewBox="0 0 24 24" style="enable-background:new 0 0 24 24;" xml:space="preserve">
<style type="text/css">
	.st0{fill-rule:evenodd;clip-rule:evenodd;}
</style>
<g>
	<path d="M12.5,18.2c-0.4,0-0.8,0.3-0.8,0.8s0.3,0.8,0.8,0.8h6c1,0,1.8-0.8,1.8-1.8V6c0-1-0.8-1.8-1.8-1.8h-6
		c-0.4,0-0.8,0.3-0.8,0.8s0.3,0.8,0.8,0.8h6c0.1,0,0.2,0.1,0.2,0.2v12c0,0.1-0.1,0.2-0.2,0.2H12.5z"/>
	<path class="st0" d="M15,14.4c0.7,0,1.2-0.6,1.2-1.2v-2.2c0-0.7-0.6-1.2-1.2-1.2h-4.6c0-0.1,0-0.1,0-0.2l-0.1-0.6
		c-0.1-0.8-1-1.4-1.8-1C6.9,8.6,5.5,9.7,4.2,11l-0.1,0.1c-0.5,0.5-0.5,1.2,0,1.7L4.2,13c1.3,1.3,2.7,2.4,4.4,3.2
		c0.8,0.4,1.7-0.1,1.8-1l0.1-0.6c0-0.1,0-0.1,0-0.2H15z M9.7,12.9c-0.3,0-0.5,0.1-0.6,0.4C9,13.3,9,13.4,8.9,13.6
		c0,0.3,0,0.6-0.1,0.9l0,0.2c-1-0.5-2-1.2-2.9-2c-0.2-0.2-0.4-0.4-0.7-0.6c1-1.1,2.2-1.9,3.5-2.6l0,0.2c0,0.3,0.1,0.6,0.1,0.9
		c0,0.4,0.4,0.7,0.7,0.7h5.1v1.7H9.7z"/>
</g>
</svg>
