<?xml version="1.0" encoding="utf-8"?>
<!-- Generator: Adobe Illustrator 25.2.3, SVG Export Plug-In . SVG Version: 6.00 Build 0)  -->
<svg version="1.1" id="Layer_1" xmlns="http://www.w3.org/2000/svg" xmlns:xlink="http://www.w3.org/1999/xlink" x="0px" y="0px"
	 viewBox="0 0 14 14" style="enable-background:new 0 0 14 14;" xml:space="preserve">
<style type="text/css">
	.st0{fill:#FFFFFF;}
	.st1{fill:none;stroke:#428BCA;stroke-width:4;}
</style>
<g>
	<path class="st0" d="M7,2L7,2c2.8,0,5,2.2,5,5l0,0c0,2.8-2.2,5-5,5l0,0c-2.8,0-5-2.2-5-5l0,0C2,4.2,4.2,2,7,2z"/>
	<path class="st1" d="M7,2L7,2c2.8,0,5,2.2,5,5l0,0c0,2.8-2.2,5-5,5l0,0c-2.8,0-5-2.2-5-5l0,0C2,4.2,4.2,2,7,2z"/>
</g>
</svg>
