<?xml version="1.0" encoding="utf-8"?>
<!-- Generator: Adobe Illustrator 25.2.3, SVG Export Plug-In . SVG Version: 6.00 Build 0)  -->
<svg version="1.1" id="Layer_1" xmlns="http://www.w3.org/2000/svg" xmlns:xlink="http://www.w3.org/1999/xlink" x="0px" y="0px"
	 viewBox="0 0 36 36" style="enable-background:new 0 0 36 36;" xml:space="preserve">
<style type="text/css">
	.st0{fill:#ADB5BD;}
</style>
<g>
	<path class="st0" d="M18,9.8c-2.1,0-3.8,1.7-3.8,3.8s1.7,3.8,3.8,3.8c2.1,0,3.8-1.7,3.8-3.8S20.1,9.8,18,9.8z"/>
	<path class="st0" d="M14,19.3c-2.1,0-3.8,1.7-3.8,3.8v1.2c0,0.8,0.5,1.4,1.3,1.5c4.3,0.7,8.6,0.7,12.9,0c0.7-0.1,1.3-0.8,1.3-1.5
		V23c0-2.1-1.7-3.8-3.8-3.8h-0.3c-0.2,0-0.4,0-0.5,0.1l-0.9,0.3c-1.5,0.5-3,0.5-4.5,0l-0.9-0.3c-0.2-0.1-0.4-0.1-0.5-0.1H14z"/>
</g>
</svg>
