<?xml version="1.0" encoding="utf-8"?>
<!-- Generator: Adobe Illustrator 25.2.3, SVG Export Plug-In . SVG Version: 6.00 Build 0)  -->
<svg version="1.1" id="Layer_1" xmlns="http://www.w3.org/2000/svg" xmlns:xlink="http://www.w3.org/1999/xlink" x="0px" y="0px"
	 viewBox="0 0 24 24" style="enable-background:new 0 0 24 24;" xml:space="preserve">
<style type="text/css">
	.st0{fill-rule:evenodd;clip-rule:evenodd;fill:#878A99;}
</style>
<path class="st0" d="M9.2,3.8c0.4,0,0.7,0.3,0.7,0.7v1.6c2.7-0.3,5.4-0.3,8.1,0V4.5c0-0.4,0.3-0.7,0.7-0.7s0.7,0.3,0.7,0.7v1.7
	C20.9,6.5,22,7.6,22.2,9l0.1,0.6c0.4,2.6,0.3,5.2-0.1,7.9c-0.2,1.3-1.2,2.2-2.6,2.4L18.5,20c-3.1,0.3-5.9,0.3-9,0l-1.1-0.1
	c-1.3-0.1-2.4-1.1-2.6-2.4C5.5,15,5.4,12.3,5.8,9.6L5.9,9C6,7.6,7.1,6.5,8.4,6.3V4.5C8.5,4.1,8.8,3.8,9.2,3.8z M9.6,7.6
	c2.9-0.3,5.7-0.3,8.6,0L19,7.7c0.8,0.1,1.5,0.7,1.6,1.5l0.1,0.6c0,0.2,0.1,0.5,0.1,0.6H7.1c0-0.2,0.1-0.5,0.1-0.6l0.1-0.6
	C7.4,8.4,8,7.8,8.9,7.7L9.6,7.6z M7,11.8c-0.1,1.8,0,3.6,0.3,5.4c0.1,0.6,0.6,1.1,1.2,1.2l1.1,0.1c3,0.3,5.7,0.3,8.7,0l1.1-0.1
	c0.6-0.1,1.1-0.6,1.2-1.2c0.3-1.8,0.4-3.6,0.3-5.4C21,11.8,7,11.8,7,11.8z"/>
</svg>
