<?xml version="1.0" encoding="utf-8"?>
<!-- Generator: Adobe Illustrator 25.2.3, SVG Export Plug-In . SVG Version: 6.00 Build 0)  -->
<svg version="1.1" id="Layer_1" xmlns="http://www.w3.org/2000/svg" xmlns:xlink="http://www.w3.org/1999/xlink" x="0px" y="0px"
	 viewBox="0 0 24 24" style="enable-background:new 0 0 24 24;" xml:space="preserve">
<style type="text/css">
	.st0{fill:#FFFFFF;}
	.st1{fill:#177848;}
	.st2{opacity:0.2;fill:#FFFFFF;enable-background:new    ;}
	.st3{opacity:0.1;enable-background:new    ;}
	.st4{fill:url(#SVGID_1_);}
	.st5{opacity:5.000000e-02;fill:url(#SVGID_2_);enable-background:new    ;}
	.st6{fill:url(#SVGID_3_);}
</style>
<g>
	<path class="st0" d="M8.8,5.8h8.4v12.3H8.8V5.8z"/>
	<path class="st1" d="M17.1,18.5H9.8c-0.2,0-0.4-0.2-0.4-0.4s0.2-0.4,0.4-0.4h6.9V6.2H9.8C9.6,6.2,9.5,6,9.5,5.8s0.2-0.4,0.4-0.4
		h7.3c0.2,0,0.4,0.2,0.4,0.4v12.3C17.5,18.4,17.3,18.5,17.1,18.5z"/>
	<path class="st1" d="M10.2,3.3L0,5.2v13.6l10.2,1.9V3.3z"/>
	<path class="st2" d="M0,5.2v0.2l10.2-1.9V3.3L0,5.2z"/>
	<g>
		<path class="st1" d="M9.5,6.9h2.9v1.5H9.5V6.9z"/>
		<path class="st1" d="M13.1,6.9H16v1.5h-2.9V6.9z"/>
		<path class="st1" d="M9.5,9.1h2.9v1.5H9.5V9.1z"/>
		<path class="st1" d="M13.1,9.1H16v1.5h-2.9V9.1z"/>
		<path class="st1" d="M9.5,11.3h2.9v1.5H9.5V11.3z"/>
		<path class="st1" d="M13.1,11.3H16v1.5h-2.9V11.3z"/>
		<path class="st1" d="M9.5,13.5h2.9v1.5H9.5V13.5z"/>
		<path class="st1" d="M13.1,13.5H16v1.5h-2.9V13.5z"/>
		<path class="st1" d="M9.5,15.6h2.9v1.5H9.5V15.6z"/>
		<path class="st1" d="M13.1,15.6H16v1.5h-2.9V15.6z"/>
	</g>
	<path class="st3" d="M0,18.8l10.2,1.9v-0.2L0,18.6V18.8z"/>
	
		<linearGradient id="SVGID_1_" gradientUnits="userSpaceOnUse" x1="6.9411" y1="17.2688" x2="17.0045" y2="7.2054" gradientTransform="matrix(1 0 0 -1 0 26)">
		<stop  offset="0" style="stop-color:#000000;stop-opacity:0.1"/>
		<stop  offset="1" style="stop-color:#000000;stop-opacity:0"/>
	</linearGradient>
	<path class="st4" d="M17.1,18.5c0.2,0,0.4-0.2,0.4-0.4v-5.4l-7.3-7.3v13.1H17.1z"/>
	<path class="st0" d="M5.4,12.4l1.7-3l0,0L5.8,9.4l-1,1.8L3.8,9.6L2.6,9.7l1.5,2.7l-1.5,2.7l1.2,0.1l0.9-1.7l1,1.8L7,15.4l0,0
		L5.4,12.4z"/>
	
		<linearGradient id="SVGID_2_" gradientUnits="userSpaceOnUse" x1="-5.612437e-02" y1="14" x2="10.1314" y2="14" gradientTransform="matrix(1 0 0 -1 0 26)">
		<stop  offset="0" style="stop-color:#FFFFFF"/>
		<stop  offset="1" style="stop-color:#000000"/>
	</linearGradient>
	<path class="st5" d="M10.2,3.3L0,5.2v13.6l10.2,1.9V3.3z"/>
	
		<linearGradient id="SVGID_3_" gradientUnits="userSpaceOnUse" x1="-1.0956" y1="18.3862" x2="18.2334" y2="9.3733" gradientTransform="matrix(1 0 0 -1 0 26)">
		<stop  offset="0" style="stop-color:#FFFFFF;stop-opacity:0.2"/>
		<stop  offset="1" style="stop-color:#FFFFFF;stop-opacity:0"/>
	</linearGradient>
	<path class="st6" d="M17.1,5.5h-6.9V3.3L0,5.2v13.6l10.2,1.9v-2.2h6.9c0.2,0,0.4-0.2,0.4-0.4V5.8C17.5,5.6,17.3,5.5,17.1,5.5z"/>
</g>
</svg>
